<svg id="Capa_1" enable-background="new 0 0 512 512" height="512" viewBox="0 0 512 512" width="512"
    xmlns="http://www.w3.org/2000/svg" xmlns:xlink="http://www.w3.org/1999/xlink">
    <linearGradient id="SVGID_1_" gradientUnits="userSpaceOnUse" x1="256" x2="256" y1="512" y2="44.999">
        <stop offset="0" stop-color="#941e1e" />
        <stop offset="1" stop-color="#ec0202" />
    </linearGradient>
    <linearGradient id="SVGID_2_" gradientUnits="userSpaceOnUse" x1="244.137" x2="244.137" y1="362" y2="0">
        <stop offset="0" stop-color="#c31717" />
        <stop offset=".5028" stop-color="#f1e9e9" />
        <stop offset="1" stop-color="#ffeaea" />
    </linearGradient>
    <g>
        <g>
            <g>
                <path
                    d="m489.645 413.343c-.015-.015-.029-.029-.029-.029l-69.217-51.314-60.515-15 28.623-15-4.299-30-32.893-15 28.592-15-4.299-30-32.862-15 28.561-15-4.933-35.409c-1.802-13.33-7.148-53.057-47.007-55.474l-125.317-64.687c-17.725-15.806-44.985-15.22-61.948 1.758l-74.18 74.18 20.464 41.675-40.615-19.404c-19.288 29.046-16.159 69.685 9.428 95.272l204.902 204.888c36.871 36.884 85.914 57.201 138.106 57.201h66.391c30.278 0 54.902-24.624 54.902-54.902 0-17.036-8.174-33.399-21.855-43.755zm-378.989-21.343c8.291 0 15-6.709 15-15s-6.709-15-15-15h-35.156c-8.291 0-15 6.709-15 15s6.709 15 15 15zm-80.156 45c0 8.291 6.709 15 15 15h125.156c8.291 0 15-6.709 15-15s-6.709-15-15-15h-125.156c-8.291 0-15 6.709-15 15zm200.815 45h-215.815c-8.291 0-15 6.709-15 15s6.709 15 15 15h215.815c8.291 0 15-6.709 15-15s-6.709-15-15-15z"
                    fill="url(#SVGID_1_)" />
            </g>
        </g>
        <g>
            <g>
                <path
                    d="m449.357 9.258c-2.314-5.611-7.793-9.258-13.857-9.258h-197.695c-3.999 0-7.822 1.597-10.635 4.424l-52.471 53.764c-18.708 18.708-19.634 49.712 9.463 78.809 22.084 22.083 53.068 34.629 80.903 34.629 23.379 0 44.648-8.628 61.04-25.02l120-121c4.292-4.293 5.582-10.738 3.252-16.348zm-391.435 123.109-10.723 10.723c-3.593 3.593-6.72 7.471-9.428 11.548l94.404 95.404c5.859 5.859 15.351 5.859 21.211 0 5.859-5.859 5.859-15.352 0-21.211zm330.586 199.633h-73.623c-8.291 0-15 6.709-15 15s6.709 15 15 15h105.515l-30.925-23.262zm-4.3-30-4.301-30h-73.592c-8.291 0-15 6.709-15 15s6.709 15 15 15zm-8.6-60-4.301-30h-73.561c-8.291 0-15 6.709-15 15s6.709 15 15 15z"
                    fill="url(#SVGID_2_)" />
            </g>
        </g>
    </g>
</svg>